<svg xmlns="http://www.w3.org/2000/svg" version="1.1" xmlns:xlink="http://www.w3.org/1999/xlink" xmlns:svgjs="http://svgjs.com/svgjs" width="1440" height="560" preserveAspectRatio="none" viewBox="0 0 1440 560"><g mask="url(&quot;#SvgjsMask1387&quot;)" fill="none"><rect width="1440" height="560" x="0" y="0" fill="rgba(31, 46, 77, 1)"></rect><path d="M 0,264 C 96,211.6 288,18.4 480,2 C 672,-14.4 768,178.8 960,182 C 1152,185.2 1344,50.8 1440,18L1440 560L0 560z" fill="rgba(69, 95, 120, 1)"></path><path d="M 0,303 C 72,336 216,448 360,468 C 504,488 576,399.8 720,403 C 864,406.2 936,486.6 1080,484 C 1224,481.4 1368,408.8 1440,390L1440 560L0 560z" fill="rgba(255, 255, 255, 1)"></path></g><defs><mask id="SvgjsMask1387"><rect width="1440" height="560" fill="#ffffff"></rect></mask></defs></svg>